<?xml version="1.0" encoding="UTF-8" standalone="no"?>
<!-- Created with Inkscape (http://www.inkscape.org/) -->

<svg
   width="173.05972mm"
   height="173.05978mm"
   viewBox="0 0 173.05972 173.05978"
   version="1.1"
   id="svg5"
   inkscape:export-filename="D:\Project\user.png"
   inkscape:export-xdpi="96"
   inkscape:export-ydpi="96"
   inkscape:version="1.1.1 (3bf5ae0d25, 2021-09-20)"
   sodipodi:docname="user2.svg"
   xmlns:inkscape="http://www.inkscape.org/namespaces/inkscape"
   xmlns:sodipodi="http://sodipodi.sourceforge.net/DTD/sodipodi-0.dtd"
   xmlns="http://www.w3.org/2000/svg"
   xmlns:svg="http://www.w3.org/2000/svg">
  <sodipodi:namedview
     id="namedview7"
     pagecolor="#ffffff"
     bordercolor="#666666"
     borderopacity="1.0"
     inkscape:pageshadow="2"
     inkscape:pageopacity="0.0"
     inkscape:pagecheckerboard="0"
     inkscape:document-units="mm"
     showgrid="false"
     fit-margin-top="0"
     fit-margin-left="0"
     fit-margin-right="0"
     fit-margin-bottom="0"
     inkscape:zoom="0.46324355"
     inkscape:cx="348.62871"
     inkscape:cy="400.43731"
     inkscape:window-width="1366"
     inkscape:window-height="705"
     inkscape:window-x="-8"
     inkscape:window-y="-8"
     inkscape:window-maximized="1"
     inkscape:current-layer="g4746" />
  <defs
     id="defs2" />
  <g
     inkscape:label="Layer 1"
     inkscape:groupmode="layer"
     id="layer1"
     style="display:inline"
     transform="translate(-21.132559,-42.265251)">
    <g
       id="g4746"
       transform="translate(-1.7134615,0.57115385)">
      <path
         id="rect2070"
         style="fill:#502d16;fill-opacity:1;stroke-width:0;stroke-miterlimit:4;stroke-dasharray:none"
         d="m 181.72366,214.75382 a 72.536536,72.536536 0 0 0 -0.0274,-0.42427 72.536536,72.536536 0 0 0 -0.16846,-1.85983 72.536536,72.536536 0 0 0 -0.2155,-1.8557 72.536536,72.536536 0 0 0 -0.26406,-1.84899 72.536536,72.536536 0 0 0 -0.31109,-1.84174 72.536536,72.536536 0 0 0 -0.35864,-1.83297 72.536536,72.536536 0 0 0 -0.40514,-1.82314 72.536536,72.536536 0 0 0 -0.45269,-1.81229 72.536536,72.536536 0 0 0 -0.49867,-1.79989 72.536536,72.536536 0 0 0 -0.54519,-1.78646 72.536536,72.536536 0 0 0 -0.59066,-1.77198 72.536536,72.536536 0 0 0 -0.63666,-1.75597 72.536536,72.536536 0 0 0 -0.68109,-1.73943 72.536536,72.536536 0 0 0 -0.72605,-1.72082 72.536536,72.536536 0 0 0 -0.76998,-1.70171 72.536536,72.536536 0 0 0 -0.81339,-1.68155 72.536536,72.536536 0 0 0 -0.8568,-1.65984 72.536536,72.536536 0 0 0 -0.89865,-1.63711 72.536536,72.536536 0 0 0 -0.94103,-1.61386 72.536536,72.536536 0 0 0 -0.98185,-1.58853 72.536536,72.536536 0 0 0 -1.02268,-1.56321 72.536536,72.536536 0 0 0 -1.06246,-1.53583 72.536536,72.536536 0 0 0 -1.10226,-1.50843 72.536536,72.536536 0 0 0 -1.13998,-1.4795 72.536536,72.536536 0 0 0 -1.17771,-1.44952 72.536536,72.536536 0 0 0 -1.21491,-1.41852 72.536536,72.536536 0 0 0 -1.25109,-1.387 72.536536,72.536536 0 0 0 -1.28622,-1.35444 72.536536,72.536536 0 0 0 -1.32085,-1.32085 72.536536,72.536536 0 0 0 -1.35444,-1.28622 72.536536,72.536536 0 0 0 -1.387,-1.25109 72.536536,72.536536 0 0 0 -1.41852,-1.21491 72.536536,72.536536 0 0 0 -1.44952,-1.17771 72.536536,72.536536 0 0 0 -1.4795,-1.14049 72.536536,72.536536 0 0 0 -1.50843,-1.10175 72.536536,72.536536 0 0 0 -1.53583,-1.06246 72.536536,72.536536 0 0 0 -1.56321,-1.02268 72.536536,72.536536 0 0 0 -1.58905,-0.98185 72.536536,72.536536 0 0 0 -1.61334,-0.94103 72.536536,72.536536 0 0 0 -1.63711,-0.89917 72.536536,72.536536 0 0 0 -1.65984,-0.85628 72.536536,72.536536 0 0 0 -1.68156,-0.81339 72.536536,72.536536 0 0 0 -1.7017,-0.76998 72.536536,72.536536 0 0 0 -1.72082,-0.72605 72.536536,72.536536 0 0 0 -1.73943,-0.68109 72.536536,72.536536 0 0 0 -1.75597,-0.63666 72.536536,72.536536 0 0 0 -1.77198,-0.59066 72.536536,72.536536 0 0 0 -1.78646,-0.54519 72.536536,72.536536 0 0 0 -1.79989,-0.49867 72.536536,72.536536 0 0 0 -1.81229,-0.45269 72.536536,72.536536 0 0 0 -1.82314,-0.40566 72.536536,72.536536 0 0 0 -1.83297,-0.35812 72.536536,72.536536 0 0 0 -1.84175,-0.31109 72.536536,72.536536 0 0 0 -1.84898,-0.26407 72.536536,72.536536 0 0 0 -1.8557,-0.216 72.536536,72.536536 0 0 0 -1.85983,-0.16795 72.536536,72.536536 0 0 0 -1.86397,-0.11989 72.536536,72.536536 0 0 0 -1.86656,-0.0724 72.536536,72.536536 0 0 0 -1.86758,-0.0243 72.536536,72.536536 0 0 0 -5.42086,0.20309 72.536536,72.536536 0 0 0 -5.390367,0.6072 72.536536,72.536536 0 0 0 -5.329907,1.00872 72.536536,72.536536 0 0 0 -5.239475,1.40405 72.536536,72.536536 0 0 0 -5.1201,1.79111 72.536536,72.536536 0 0 0 -4.971788,2.16937 72.536536,72.536536 0 0 0 -4.796092,2.53473 72.536536,72.536536 0 0 0 -4.593,2.88613 72.536536,72.536536 0 0 0 -4.364593,3.22099 72.536536,72.536536 0 0 0 -4.111376,3.53829 72.536536,72.536536 0 0 0 -3.835424,3.83594 72.536536,72.536536 0 0 0 -3.538802,4.11137 72.536536,72.536536 0 0 0 -3.220992,4.3646 72.536536,72.536536 0 0 0 -2.886128,4.593 72.536536,72.536536 0 0 0 -2.534214,4.79557 72.536536,72.536536 0 0 0 -2.169377,4.97179 72.536536,72.536536 0 0 0 -1.79162,5.1201 72.536536,72.536536 0 0 0 -1.404049,5.23999 72.536536,72.536536 0 0 0 -1.008208,5.32991 72.536536,72.536536 0 0 0 -0.607713,5.39037 72.536536,72.536536 0 0 0 -0.0093,0.24649 z" />
      <path
         id="path3587"
         style="fill:#f2f2f2;fill-opacity:1;stroke-width:0;stroke-miterlimit:4;stroke-dasharray:none"
         d="m 25.515109,41.694097 c -1.478632,0 -2.669088,1.190456 -2.669088,2.669088 V 212.08473 c 0,1.47863 1.190456,2.66909 2.669088,2.66909 h 11.517643 a 72.536536,72.536536 0 0 1 0.0093,-0.2465 72.536536,72.536536 0 0 1 0.607714,-5.39037 72.536536,72.536536 0 0 1 1.008208,-5.32991 72.536536,72.536536 0 0 1 1.404048,-5.23999 72.536536,72.536536 0 0 1 1.791621,-5.1201 72.536536,72.536536 0 0 1 2.169377,-4.97179 72.536536,72.536536 0 0 1 2.534213,-4.79557 72.536536,72.536536 0 0 1 2.886128,-4.593 72.536536,72.536536 0 0 1 3.220993,-4.36459 72.536536,72.536536 0 0 1 3.538802,-4.11138 72.536536,72.536536 0 0 1 3.835424,-3.83594 72.536536,72.536536 0 0 1 4.111376,-3.53828 72.536536,72.536536 0 0 1 4.364593,-3.221 72.536536,72.536536 0 0 1 4.593,-2.88613 72.536536,72.536536 0 0 1 4.796091,-2.53472 72.536536,72.536536 0 0 1 4.971788,-2.16938 72.536536,72.536536 0 0 1 5.1201,-1.79111 72.536536,72.536536 0 0 1 5.239475,-1.40404 72.536536,72.536536 0 0 1 5.329907,-1.00873 72.536536,72.536536 0 0 1 5.39037,-0.6072 72.536536,72.536536 0 0 1 5.42086,-0.20309 72.536536,72.536536 0 0 1 1.86759,0.0243 72.536536,72.536536 0 0 1 1.86655,0.0724 72.536536,72.536536 0 0 1 1.86397,0.11989 72.536536,72.536536 0 0 1 1.85983,0.16795 72.536536,72.536536 0 0 1 1.8557,0.21601 72.536536,72.536536 0 0 1 1.84899,0.26406 72.536536,72.536536 0 0 1 1.84174,0.31109 72.536536,72.536536 0 0 1 1.83297,0.35812 72.536536,72.536536 0 0 1 1.82314,0.40566 72.536536,72.536536 0 0 1 1.81229,0.45269 72.536536,72.536536 0 0 1 1.79989,0.49868 72.536536,72.536536 0 0 1 1.78646,0.54518 72.536536,72.536536 0 0 1 1.77198,0.59066 72.536536,72.536536 0 0 1 1.75597,0.63666 72.536536,72.536536 0 0 1 1.73943,0.68109 72.536536,72.536536 0 0 1 1.72082,0.72606 72.536536,72.536536 0 0 1 1.70171,0.76998 72.536536,72.536536 0 0 1 1.68155,0.81338 72.536536,72.536536 0 0 1 1.65984,0.85628 72.536536,72.536536 0 0 1 1.63711,0.89917 72.536536,72.536536 0 0 1 1.61334,0.94103 72.536536,72.536536 0 0 1 1.58905,0.98185 72.536536,72.536536 0 0 1 1.56321,1.02268 72.536536,72.536536 0 0 1 1.53583,1.06246 72.536536,72.536536 0 0 1 1.50843,1.10175 72.536536,72.536536 0 0 1 1.4795,1.14049 72.536536,72.536536 0 0 1 1.44952,1.17771 72.536536,72.536536 0 0 1 1.41852,1.21491 72.536536,72.536536 0 0 1 1.387,1.25109 72.536536,72.536536 0 0 1 1.35444,1.28623 72.536536,72.536536 0 0 1 1.32085,1.32085 72.536536,72.536536 0 0 1 1.28622,1.35443 72.536536,72.536536 0 0 1 1.25109,1.387 72.536536,72.536536 0 0 1 1.21491,1.41852 72.536536,72.536536 0 0 1 1.17771,1.44952 72.536536,72.536536 0 0 1 1.13998,1.4795 72.536536,72.536536 0 0 1 1.10226,1.50843 72.536536,72.536536 0 0 1 1.06246,1.53583 72.536536,72.536536 0 0 1 1.02268,1.56321 72.536536,72.536536 0 0 1 0.98185,1.58853 72.536536,72.536536 0 0 1 0.94103,1.61386 72.536536,72.536536 0 0 1 0.89865,1.63711 72.536536,72.536536 0 0 1 0.8568,1.65985 72.536536,72.536536 0 0 1 0.81339,1.68155 72.536536,72.536536 0 0 1 0.76998,1.7017 72.536536,72.536536 0 0 1 0.72605,1.72083 72.536536,72.536536 0 0 1 0.68109,1.73942 72.536536,72.536536 0 0 1 0.63666,1.75597 72.536536,72.536536 0 0 1 0.59066,1.77199 72.536536,72.536536 0 0 1 0.54519,1.78645 72.536536,72.536536 0 0 1 0.49867,1.79989 72.536536,72.536536 0 0 1 0.45269,1.81229 72.536536,72.536536 0 0 1 0.40514,1.82315 72.536536,72.536536 0 0 1 0.35864,1.83296 72.536536,72.536536 0 0 1 0.31109,1.84175 72.536536,72.536536 0 0 1 0.26407,1.84898 72.536536,72.536536 0 0 1 0.21549,1.8557 72.536536,72.536536 0 0 1 0.16846,1.85984 72.536536,72.536536 0 0 1 0.0274,0.42426 h 11.51299 c 1.47863,0 2.66909,-1.19046 2.66909,-2.66909 V 44.363187 c 0,-1.478631 -1.19046,-2.669087 -2.66909,-2.669087 z" />
      <circle
         style="fill:#502d16;fill-opacity:1;stroke-width:3.30418"
         id="path2094"
         cx="109.37596"
         cy="96.558327"
         r="34.840382" />
    </g>
  </g>
</svg>
