<?xml version="1.0" encoding="UTF-8" standalone="no"?>
<svg
   height="229.08633"
   width="923.15869"
   viewBox="-5.7224595 -2.36697 38.153109 4.0668036"
   version="1.1"
   id="svg52"
   sodipodi:docname="XL-Axiata-Logo.svg"
   inkscape:version="1.1.1 (3bf5ae0d25, 2021-09-20)"
   xmlns:inkscape="http://www.inkscape.org/namespaces/inkscape"
   xmlns:sodipodi="http://sodipodi.sourceforge.net/DTD/sodipodi-0.dtd"
   xmlns="http://www.w3.org/2000/svg"
   xmlns:svg="http://www.w3.org/2000/svg">
  <sodipodi:namedview
     id="namedview54"
     pagecolor="#ffffff"
     bordercolor="#666666"
     borderopacity="1.0"
     inkscape:pageshadow="2"
     inkscape:pageopacity="0.0"
     inkscape:pagecheckerboard="0"
     showgrid="false"
     fit-margin-top="0"
     fit-margin-left="0"
     fit-margin-right="0"
     fit-margin-bottom="0"
     inkscape:zoom="0.65"
     inkscape:cx="525.38462"
     inkscape:cy="277.69231"
     inkscape:window-width="1366"
     inkscape:window-height="705"
     inkscape:window-x="-8"
     inkscape:window-y="-8"
     inkscape:window-maximized="1"
     inkscape:current-layer="svg52" />
  <defs
     id="defs32">
    <linearGradient
       id="c"
       spreadMethod="pad"
       gradientTransform="matrix(9.18293,0,0,-9.18293,1097.36,44.4584)"
       gradientUnits="userSpaceOnUse"
       y2="0"
       x2="1"
       y1="0"
       x1="0">
      <stop
         offset="0"
         stop-color="#b10e3a"
         id="stop2" />
      <stop
         offset=".6025"
         stop-color="#ed165f"
         id="stop4" />
      <stop
         offset="1"
         stop-color="#ed165f"
         id="stop6" />
    </linearGradient>
    <linearGradient
       id="b"
       spreadMethod="pad"
       gradientTransform="matrix(0,-9.88068,-9.88068,0,1126.43,35.8467)"
       gradientUnits="userSpaceOnUse"
       y2="0"
       x2="1"
       y1="0"
       x1="0">
      <stop
         offset="0"
         stop-color="#f14e27"
         id="stop9" />
      <stop
         offset=".10001"
         stop-color="#f14e27"
         id="stop11" />
      <stop
         offset=".91742"
         stop-color="#f6861f"
         id="stop13" />
      <stop
         offset="1"
         stop-color="#f6861f"
         id="stop15" />
    </linearGradient>
    <linearGradient
       id="a"
       spreadMethod="pad"
       gradientTransform="matrix(9.24806,0,0,-9.24806,1097.37,49.9602)"
       gradientUnits="userSpaceOnUse"
       y2="0"
       x2="1"
       y1="0"
       x1="0">
      <stop
         offset="0"
         stop-color="#212769"
         id="stop18" />
      <stop
         offset=".19381"
         stop-color="#552075"
         id="stop20" />
      <stop
         offset=".21428"
         stop-color="#552075"
         id="stop22" />
      <stop
         offset=".22944"
         stop-color="#552075"
         id="stop24" />
      <stop
         offset="1"
         stop-color="#a82a81"
         id="stop26" />
    </linearGradient>
    <clipPath
       id="d"
       clipPathUnits="userSpaceOnUse">
      <path
         d="M 0,0 H 1213.23 V 841.89 H 0 Z"
         id="path29" />
    </clipPath>
  </defs>
  <g
     id="g880"
     transform="translate(-5.7224595,-5.0675083)">
    <path
       d="M 0,7.57452 3.28083,9.46788 V 5.6801 Z"
       fill="#f34d8a"
       id="path34" />
    <path
       d="M 0,0 V 3.78672 L 3.28083,1.89336 Z"
       fill="#ffb946"
       id="path36" />
    <path
       d="M 3.28083,1.89434 0,3.78699 3.28083,5.68035 Z"
       fill="#fa952e"
       id="path38" />
    <path
       d="m 1097.38,26.095 9.29,-5.366 v 10.735 z"
       fill="url(#a)"
       transform="matrix(0.35278,0,0,-0.35278,-383.85044,14.88683)"
       id="path40"
       style="fill:url(#a)" />
    <path
       d="m 1097.38,26.097 9.29,5.367 v 0.002 l -9.29,5.363 z"
       fill="url(#b)"
       transform="matrix(0.35278,0,0,-0.35278,-383.85044,14.88683)"
       id="path42"
       style="fill:url(#b)" />
    <path
       d="m 1097.38,15.361 9.29,5.366 v 0.002 l -9.29,5.366 z"
       fill="url(#c)"
       transform="matrix(0.35278,0,0,-0.35278,-383.85044,14.88683)"
       id="path44"
       style="fill:url(#c)" />
    <g
       clip-path="url(#d)"
       transform="matrix(0.35278,0,0,-0.35278,-383.85044,14.88683)"
       id="g48">
      <path
         d="m 1161.23,19.8599 -3.953,5.871 3.989,5.577 h -1.393 c -0.809,-0.003 -2.004,-0.245 -2.798,-1.4 -0.411,-0.601 -1.369,-2.092 -1.379,-2.095 l -0.041,-0.059 -2.278,3.554 h -3.547 l 4.075,-5.754 -3.95,-5.694 h 3.284 l 2.413,3.477 2.388,-3.477 z m 4.08,0 v 11.754 c -0.319,-0.079 -1.686,-0.483 -2.424,-1.254 -0.319,-0.332 -0.475,-0.706 -0.475,-1.013 v -9.487 z m 14.74,0.5062 c 0.561,-0.506 1.233,-0.706 2.232,-0.706 1.056,0 1.811,0.242 2.472,0.616 v 1.981 c -0.439,-0.202 -0.938,-0.322 -1.49,-0.322 v 0 c -0.39,0 -0.709,0.1 -0.919,0.332 -0.217,0.229 -0.297,0.558 -0.297,0.965 v 5.676 h 2.481 l 1.343,2.402 h -3.824 v 4.339 c -1.131,-0.401 -2.076,-1.042 -2.408,-1.439 -0.353,-0.424 -0.477,-0.778 -0.477,-1.469 v -9.699 c 0,-1.337 0.332,-2.167 0.889,-2.676 m 9.73,1.5614 c -0.465,0.284 -0.646,0.798 -0.646,1.265 0,0.321 0.08,0.623 0.217,0.837 0.327,0.517 0.97,0.831 2.04,0.853 0.075,0 0.162,0.005 0.241,0.005 1.187,0 1.852,-0.224 1.852,-0.224 v -0.945 c 0,-0.616 -0.271,-1.452 -1.153,-1.836 -0.436,-0.185 -0.891,-0.282 -1.325,-0.282 -0.444,0 -0.868,0.105 -1.226,0.327 m 1.504,9.51 c -1.606,0.007 -3.1,-0.634 -3.386,-0.848 -0.235,-0.178 -0.388,-0.417 -0.388,-0.736 v -1.534 c 1.052,0.357 2.447,0.576 3.289,0.576 0.869,0 1.591,-0.102 2.074,-0.496 0.55,-0.449 0.621,-1.207 0.621,-1.566 0,-0.132 -0.01,-0.215 -0.01,-0.215 l -0.01,-0.047 -0.044,0.007 c 0,0 -1.279,0.142 -2.622,0.142 -1.337,0 -2.517,-0.251 -3.321,-0.88 -0.707,-0.549 -1.265,-1.604 -1.265,-2.716 0,-1.257 0.568,-2.152 1.204,-2.681 0.668,-0.549 1.908,-0.801 2.958,-0.801 1.125,0 1.879,0.185 2.359,0.372 0.47,0.185 0.663,0.369 0.663,0.369 l 0.078,0.067 v -0.593 h 2.737 v 6.669 c 0,1.556 -0.273,2.821 -1.078,3.644 -1.067,1.085 -2.308,1.267 -3.859,1.267 m -20.664,-9.51 c -0.468,0.284 -0.651,0.798 -0.651,1.265 0,0.321 0.086,0.623 0.229,0.837 0.315,0.517 0.963,0.831 2.028,0.853 0.087,0 0.163,0.005 0.243,0.005 1.19,0 1.857,-0.224 1.857,-0.224 v -0.945 c 0,-0.616 -0.27,-1.452 -1.155,-1.836 -0.431,-0.185 -0.896,-0.282 -1.328,-0.282 -0.439,0 -0.863,0.105 -1.223,0.327 m 1.504,9.51 c -1.611,0.007 -3.103,-0.634 -3.383,-0.848 -0.236,-0.178 -0.392,-0.417 -0.392,-0.736 v -1.534 c 1.058,0.357 2.444,0.576 3.292,0.576 0.863,0 1.591,-0.102 2.069,-0.496 0.55,-0.449 0.624,-1.202 0.624,-1.566 0,-0.132 -0.01,-0.217 -0.01,-0.217 l -0.014,-0.045 -0.04,0.007 c 0,0 -1.279,0.142 -2.621,0.142 -1.343,0 -2.51,-0.251 -3.327,-0.88 -0.704,-0.549 -1.262,-1.604 -1.262,-2.716 0,-1.257 0.558,-2.152 1.204,-2.681 0.665,-0.549 1.915,-0.801 2.956,-0.801 1.127,0 1.881,0.185 2.353,0.372 0.481,0.185 0.669,0.369 0.669,0.369 l 0.082,0.067 v -0.591 h 2.745 v 6.667 c 0,1.556 -0.276,2.821 -1.083,3.644 -1.079,1.085 -2.316,1.267 -3.864,1.267 m -29.724,-9.51 c -0.468,0.284 -0.652,0.798 -0.652,1.265 0,0.321 0.085,0.623 0.223,0.837 0.327,0.517 0.973,0.831 2.04,0.853 0.074,0 0.161,0.005 0.24,0.005 1.193,0 1.852,-0.224 1.852,-0.224 v -0.945 c 0,-0.616 -0.266,-1.452 -1.151,-1.836 -0.427,-0.185 -0.895,-0.282 -1.328,-0.282 -0.446,0 -0.865,0.105 -1.224,0.327 m 1.504,9.51 c -1.606,0.007 -3.103,-0.634 -3.382,-0.848 -0.229,-0.178 -0.395,-0.417 -0.395,-0.736 v -1.534 c 1.06,0.357 2.446,0.576 3.292,0.576 0.863,0 1.596,-0.102 2.079,-0.496 0.548,-0.449 0.615,-1.202 0.615,-1.566 0,-0.132 -0.01,-0.217 -0.01,-0.217 l -0.01,-0.045 -0.047,0.007 c 0,0 -1.277,0.142 -2.625,0.142 -1.338,0 -2.51,-0.251 -3.317,-0.88 -0.71,-0.549 -1.267,-1.604 -1.262,-2.716 0,-1.257 0.557,-2.152 1.198,-2.681 0.672,-0.549 1.912,-0.801 2.96,-0.801 1.124,0 1.874,0.185 2.357,0.372 0.475,0.185 0.662,0.369 0.662,0.369 l 0.079,0.067 v -0.591 h 2.745 v 6.667 c 0,1.556 -0.28,2.821 -1.08,3.644 -1.076,1.085 -2.309,1.267 -3.864,1.267"
         fill="#1358aa"
         id="path46" />
    </g>
    <path
       d="M 9.8178,5.86055 8.48784,3.87229 h 1.2894 l 0.71615,1.13842 0.72284,-1.13842 h 1.26047 l -1.32891,1.97697 1.38747,2.0694 h -1.2894 L 10.4701,6.69734 9.68976,7.91866 H 8.43033 Z M 12.95753,3.8713 h 1.12077 v 3.06352 h 1.95862 v 0.98355 h -3.0794 z"
       fill="#1358aa"
       id="path50" />
  </g>
</svg>
